<svg width="24" height="24" xmlns="http://www.w3.org/2000/svg">

 <g>
  <title>background</title>
  <rect fill="none" id="canvas_background" height="402" width="582" y="-1" x="-1"/>
 </g>
 <g>
  <title>Layer 1</title>
  <path fill="#ffffff" id="svg_1" d="m21.635,6.366c-0.467,-0.772 -1.043,-1.528 -1.748,-2.229c-0.713,-0.708 -1.482,-1.288 -2.269,-1.754l1.382,-1.383c0,0 2,0 3,1s1,3 1,3l-1.365,1.366zm-11.635,11.634l-4,0l0,-4l0.48,-0.48c0.813,0.385 1.621,0.926 2.348,1.652c0.728,0.729 1.268,1.535 1.652,2.348l-0.48,0.48zm10.48,-10.48l-8.846,8.845c-0.467,-0.771 -1.043,-1.529 -1.748,-2.229c-0.712,-0.709 -1.482,-1.288 -2.269,-1.754l8.863,-8.862c0.813,0.383 1.621,0.924 2.348,1.651c0.729,0.728 1.269,1.536 1.652,2.349zm-16.48,-3.52l0,16l16,0l0,-7l3,-3.038l0,11.038c0,1.105 -0.896,2 -2,2l-18,0c-1.104,0 -2,-0.895 -2,-2l0,-18c0,-1.104 0.896,-2 2,-2l11.01,0l-3.001,3l-7.009,0z"/>
 </g>
</svg>