<?xml version="1.0" encoding="utf-8"?>
<!-- Generator: Adobe Illustrator 22.0.1, SVG Export Plug-In . SVG Version: 6.00 Build 0)  -->
<svg version="1.1" id="Layer_1" xmlns="http://www.w3.org/2000/svg" xmlns:xlink="http://www.w3.org/1999/xlink" x="0px" y="0px"
	 viewBox="0 0 1289.2 419" style="enable-background:new 0 0 1289.2 419;" xml:space="preserve">
<style type="text/css">
	.st0{fill:#FFFFFF;}
	.st1{fill:#A30000;}
	.st2{fill:#CC0000;}
	.st3{fill:#820000;}
</style>
<g>
	<g>
		<path class="st0" d="M468.8,154.3l-12.1-24.8h-8.3v24.8h-20.1V80.5h33.1c4.3,0,8.3,0.4,11.9,1.3c3.6,0.9,6.5,2.2,9.2,4.3
			c2.7,2,4.5,4.5,5.8,7.4c1.3,3.1,2,6.7,2,11.2c0,5.6-1.1,10.1-3.6,13.6s-5.6,6.3-9.6,8.1l14.8,28.2h-23V154.3z M467.9,99.5
			c-1.3-1.6-3.8-2.2-6.9-2.2h-12.3v16.1h12.1c3.4,0,5.8-0.7,7.2-2c1.3-1.3,2-3.4,2-6C469.9,102.9,469.2,100.9,467.9,99.5z"/>
		<path class="st0" d="M507,154.3V80.5h56.6v17.2h-36.2v9.8h21.9v16.8h-21.9v12.8h36.9v17.2H507z"/>
		<path class="st0" d="M641.9,134.6c-1.8,4.7-4.3,8.5-7.6,11.4c-3.4,2.9-7.6,4.9-12.5,6.3c-4.9,1.3-10.7,2-17.2,2h-23.9V80.5h25.7
			c5.8,0,11,0.7,15.7,1.8c4.7,1.1,8.7,3.1,11.9,6c3.4,2.9,5.8,6.5,7.6,11.2c1.8,4.7,2.7,10.5,2.7,17.5
			C644.4,124.1,643.5,129.9,641.9,134.6z M622.5,108.7c-0.7-2.5-1.6-4.5-2.9-6c-1.3-1.6-3.1-2.7-5.4-3.4c-2.2-0.7-4.9-1.1-8.1-1.1
			H601v38.7h4.5c3.1,0,5.8-0.2,8.1-0.9s4-1.8,5.6-3.4c1.3-1.6,2.5-3.6,3.1-6c0.7-2.5,0.9-5.6,0.9-9.2
			C623.4,114.1,623.1,111.2,622.5,108.7z"/>
		<path class="st0" d="M741.7,154.3v-29.1h-23v29.1h-20.8V80.5h20.8v26.8h23V80.5h20.8v73.8H741.7z"/>
		<path class="st0" d="M828.5,154.3l-4-13h-22.1l-4,13h-21.9l26.8-73.8h20.6l26.8,73.8H828.5z M818,120.3c-0.7-2.5-1.1-4.5-1.8-6.3
			c-0.4-1.8-0.9-3.4-1.3-4.7c-0.4-1.3-0.7-2.7-0.9-3.8c-0.2-1.1-0.4-2.5-0.7-3.6c-0.2,1.3-0.4,2.5-0.7,3.6c-0.2,1.1-0.7,2.5-0.9,3.8
			c-0.4,1.3-0.9,2.9-1.3,4.7c-0.4,1.8-1.1,3.8-1.8,6l-1.3,4.9h12.3L818,120.3z"/>
		<path class="st0" d="M892.3,98.4v55.9h-20.4V98.4h-20.6V80.5h61.7v17.9H892.3z"/>
		<path class="st0" d="M940.4,93.5c-0.4,1.1-1.1,2.2-2,2.9c-0.9,0.7-1.8,1.6-2.9,2c-1.1,0.4-2.5,0.7-3.8,0.7c-1.3,0-2.7-0.2-3.8-0.7
			c-1.1-0.4-2.2-1.1-2.9-2c-0.9-0.9-1.6-1.8-2-2.9c-0.4-1.1-0.7-2.5-0.7-3.8c0-1.3,0.2-2.7,0.7-3.8c0.4-1.1,1.1-2.2,2-2.9
			c0.9-0.9,1.8-1.6,2.9-2c1.1-0.4,2.5-0.7,3.8-0.7c1.3,0,2.7,0.2,3.8,0.7c1.1,0.4,2.2,1.1,2.9,2c0.9,0.9,1.6,1.8,2,2.9
			c0.4,1.1,0.7,2.5,0.7,3.8C941.1,91,940.8,92.1,940.4,93.5z M939,86.5c-0.4-0.9-0.9-1.8-1.8-2.5c-0.9-0.7-1.6-1.3-2.5-1.8
			c-0.9-0.4-2-0.7-3.1-0.7c-1.1,0-2.2,0.2-3.1,0.7c-0.9,0.4-1.8,0.9-2.5,1.8c-0.7,0.9-1.3,1.6-1.8,2.5c-0.4,0.9-0.7,2-0.7,3.1
			c0,1.1,0.2,2.2,0.7,3.1c0.4,0.9,0.9,1.8,1.8,2.5c0.7,0.7,1.6,1.3,2.5,1.8c0.9,0.4,2,0.7,3.1,0.7c1.1,0,2.2-0.2,3.1-0.7
			c0.9-0.4,1.8-0.9,2.5-1.8c0.7-0.7,1.3-1.6,1.8-2.5c0.4-0.9,0.7-2,0.7-3.1C939.7,88.6,939.5,87.4,939,86.5z M935.5,89.5
			c-0.4,0.4-0.9,0.9-1.6,1.1l2.2,4.3h-2l-2-4h-2v4h-2V84.5h4.5c0.4,0,0.9,0,1.3,0.2c0.4,0.2,0.7,0.2,1.1,0.7
			c0.2,0.2,0.4,0.7,0.7,0.9c0.2,0.2,0.2,0.9,0.2,1.3C935.9,88.1,935.7,88.8,935.5,89.5z M933.7,86.3c-0.2-0.2-0.7-0.4-1.1-0.4h-2.7
			v2.9h2.7c0.4,0,0.9-0.2,1.1-0.4c0.2-0.2,0.4-0.7,0.4-1.1C934.1,87,934.1,86.5,933.7,86.3z"/>
		<path class="st0" d="M512.4,253.7c-2.2,6.9-5.4,13-9.4,18.1c-4,5.1-8.9,8.9-14.5,11.9c-5.6,2.9-12.1,4.3-18.8,4.3
			c-6.9,0-13.2-1.3-18.8-4.3c-5.6-2.7-10.5-6.7-14.5-11.9c-4-5.1-7.2-11-9.2-18.1c-2.2-6.9-3.1-14.5-3.1-23c0-8.3,1.1-16.1,3.4-23
			c2.2-6.9,5.4-13,9.4-18.1c4-5.1,8.9-8.9,14.5-11.9c5.6-2.9,11.9-4.3,18.8-4.3c6.9,0,13.2,1.3,18.8,4.3c5.6,2.7,10.5,6.7,14.5,11.9
			c4,5.1,7.2,11,9.4,18.1c2.2,7.2,3.4,14.5,3.4,23C515.5,239.1,514.4,246.7,512.4,253.7z M500.8,212.1c-1.8-5.6-4.3-10.5-7.2-14.5
			c-3.1-4-6.7-7.2-10.7-9.4c-4-2.2-8.5-3.1-13.4-3.1c-4.7,0-9.2,1.1-13.2,3.1c-4,2.2-7.6,5.1-10.5,9.2c-2.9,4-5.4,8.7-6.9,14.3
			c-1.8,5.6-2.5,11.9-2.5,18.8s0.9,13.2,2.7,18.8c1.8,5.6,4,10.5,7.2,14.5c2.9,4,6.5,7.2,10.7,9.4c4,2.2,8.5,3.1,13.4,3.1
			c4.7,0,9.2-1.1,13.2-3.1c4-2.2,7.6-5.1,10.5-9.2c2.9-4,5.4-8.7,6.9-14.3c1.8-5.6,2.5-11.9,2.5-18.8
			C503.2,224.1,502.3,217.9,500.8,212.1z"/>
		<path class="st0" d="M618.7,223.2c-1.8,4.3-4.5,7.8-7.6,10.7c-3.4,2.9-7.2,5.1-11.9,6.5c-4.7,1.6-9.6,2.2-15.2,2.2h-26.8v43.4
			h-12.3V175.4h41.4c5.1,0,9.6,0.7,14.1,2c4.3,1.3,8.1,3.4,11.2,6c3.1,2.7,5.6,6.3,7.4,10.3c1.8,4.3,2.7,8.9,2.7,14.5
			C621.4,214.1,620.5,219,618.7,223.2z M603,192.6c-4-3.8-9.8-5.8-17.5-5.8h-28.6v44.7H584c16.6,0,25.1-7.4,25.1-22.4
			C609.1,201.8,607,196.4,603,192.6z"/>
		<path class="st0" d="M647.3,286.3V175.6h66.9v11.2h-54.6v34.9h31.5v11.2h-31.5v42.3h57v11.2H647.3z"/>
		<path class="st0" d="M813.1,286.3l-48.3-75.8c-0.7-0.9-1.3-2-2-3.4c-0.7-1.3-1.6-2.7-2.2-4c-0.7-1.3-1.3-2.5-2.2-3.8
			c-0.7-1.1-1.1-2-1.6-2.9v7.6v82.1h-12.1V175.4h12.1l47.9,77.2c0.7,0.9,1.3,2,2,3.4s1.6,2.7,2.2,4c0.7,1.3,1.3,2.5,2.2,3.8
			c0.7,1.1,1.1,2,1.6,2.9V259v-83.4h12.1v110.7L813.1,286.3L813.1,286.3z"/>
		<path class="st0" d="M924.1,269.3c-1.6,3.8-4,7.2-7.2,9.8c-3.1,2.7-6.9,4.9-11.6,6.5c-4.5,1.6-9.6,2.5-15.4,2.5
			c-7.6,0-14.5-1.3-21-4.3c-6.5-2.9-11.9-6.5-16.1-11l8.3-9.2c4.3,4,8.7,7.2,13.6,9.6c4.9,2.5,10.1,3.6,15.9,3.6
			c7.4,0,13.2-1.8,17.5-5.1c4.3-3.4,6.5-8.1,6.5-13.9c0-2.5-0.4-4.9-1.3-6.9c-0.9-2-2.2-4-4.3-5.8c-2-1.8-4.7-3.6-8.1-5.4
			c-3.4-1.8-7.6-3.6-12.8-5.4c-6-2-11-4.3-15.2-6.5c-4-2.2-7.4-4.5-9.8-6.9c-2.5-2.5-4.3-5.1-5.4-8.3c-1.1-3.1-1.6-6.5-1.6-10.5
			c0-4.5,0.9-8.3,2.5-11.9c1.8-3.6,4-6.5,6.9-8.9c2.9-2.5,6.7-4.3,11-5.6c4.3-1.3,8.9-1.8,14.1-1.8c7.4,0,13.6,1.1,18.8,3.1
			c5.1,2,10.1,4.9,14.8,8.7l-7.8,9.6c-4-3.4-8.1-6-12.1-7.6c-4-1.8-8.9-2.7-14.5-2.7c-3.8,0-7.2,0.4-9.8,1.3c-2.7,0.9-4.9,2-6.7,3.6
			c-1.8,1.6-2.9,3.1-3.8,5.1c-0.9,2-1.1,4-1.1,6.3c0,2.2,0.2,4.5,0.9,6.3c0.7,1.8,1.8,3.6,3.8,5.4c2,1.8,4.5,3.4,8.1,5.1
			c3.4,1.8,7.8,3.6,13.4,5.6c6,2.2,11.2,4.5,15.4,6.7c4,2.2,7.4,4.7,9.8,7.4c2.5,2.7,4.3,5.6,5.4,8.7c1.1,3.1,1.6,6.7,1.6,11
			C926.5,261.5,925.6,265.5,924.1,269.3z"/>
		<path class="st0" d="M1024.1,286.3v-52.1h-55v52.1h-12.3V175.6H969v47.2h55v-47.2h12.3v110.7H1024.1z"/>
		<path class="st0" d="M1071,286.3V175.6h12.3v110.7H1071z"/>
		<path class="st0" d="M1130.6,186.8v36.7h30.2v11.2h-30.4v51.5H1118V175.4h65.1v11.2h-52.6V186.8z"/>
		<path class="st0" d="M1247.6,186.8v99.6h-12.3v-99.6h-32.7v-11.2h77.4v11.2H1247.6z"/>
		<path class="st0" d="M465,365.3l-4.7-13.2h-22.1l-4.7,13.2h-8.7l19.9-55.3h8.7l20.1,55.3H465z M453.3,332c-0.2-0.9-0.7-2-1.1-3.4
			c-0.4-1.1-0.9-2.5-1.1-3.6c-0.4-1.1-0.7-2.2-1.1-3.4c-0.4-1.1-0.7-1.8-0.7-2.5c-0.2,0.7-0.4,1.3-0.7,2.5c-0.2,1.1-0.7,2.2-1.1,3.4
			c-0.4,1.1-0.7,2.5-1.1,3.6c-0.4,1.3-0.7,2.5-1.1,3.4l-4.5,12.8h17L453.3,332z"/>
		<path class="st0" d="M517.1,354.6c-0.9,2.7-2,4.7-3.6,6.5c-1.6,1.8-3.1,3.1-5.1,3.8c-2,0.7-4,1.3-6.3,1.3c-2,0-4-0.4-6-1.3
			c-1.8-0.9-3.4-2-4.5-3.4v15l-8.1,4.3v-56.8h8.1v4c1.6-1.3,3.1-2.5,4.9-3.6c1.8-0.9,3.8-1.3,6-1.3c2.2,0,4.3,0.4,6.3,1.3
			c2,0.9,3.6,2.2,5.1,4c1.3,1.8,2.7,4,3.4,6.9c0.9,2.9,1.1,6.3,1.1,10.1C518.4,348.8,518,351.9,517.1,354.6z M507.9,334
			c-1.6-2.5-3.8-3.6-6.9-3.6c-2,0-3.8,0.4-5.4,1.6c-1.6,1.1-2.9,2.2-4,3.6V353c0.4,0.7,1.1,1.3,1.8,1.8c0.7,0.7,1.3,1.1,2.2,1.8
			c0.9,0.4,1.8,0.9,2.7,1.3c0.9,0.4,2,0.4,2.9,0.4c2.9,0,5.1-1.1,6.7-3.4c1.6-2.2,2.2-5.4,2.2-9.8
			C510.2,340.2,509.5,336.4,507.9,334z"/>
		<path class="st0" d="M562.3,354.6c-0.9,2.7-2,4.7-3.6,6.5s-3.1,3.1-5.1,3.8c-2,0.7-4,1.3-6.3,1.3c-2,0-4-0.4-6-1.3
			c-1.8-0.9-3.4-2-4.5-3.4v15l-8.1,4.3v-56.8h8.1v4c1.6-1.3,3.1-2.5,4.9-3.6c1.8-0.9,3.8-1.3,6-1.3s4.3,0.4,6.3,1.3
			c2,0.9,3.6,2.2,5.1,4c1.3,1.8,2.7,4,3.4,6.9c0.9,2.9,1.1,6.3,1.1,10.1C563.6,348.8,563.2,351.9,562.3,354.6z M552.9,334
			c-1.6-2.5-3.8-3.6-6.9-3.6c-2,0-3.8,0.4-5.4,1.6s-2.9,2.2-4,3.6V353c0.4,0.7,1.1,1.3,1.8,1.8c0.7,0.7,1.3,1.1,2.2,1.8
			c0.9,0.4,1.8,0.9,2.7,1.3s2,0.4,2.9,0.4c2.9,0,5.1-1.1,6.7-3.4s2.2-5.4,2.2-9.8C555.4,340.2,554.5,336.4,552.9,334z"/>
		<path class="st0" d="M574.2,365.3v-53.5l8.3-4.3v57.7H574.2z"/>
		<path class="st0" d="M603,317c-1.1,1.1-2.2,1.6-3.6,1.6c-1.6,0-2.7-0.4-3.8-1.6c-1.1-1.1-1.6-2.2-1.6-3.6c0-1.6,0.4-2.7,1.6-3.8
			c1.1-1.1,2.2-1.6,3.8-1.6c1.3,0,2.7,0.4,3.6,1.6c1.1,1.1,1.6,2.2,1.6,3.8C604.4,314.5,603.9,315.9,603,317z M595.2,365.3v-41.6
			h8.3v41.6H595.2z"/>
		<path class="st0" d="M641.7,335.8c-1.8-1.8-3.4-2.9-4.9-3.8c-1.6-0.9-3.4-1.1-5.1-1.1c-2.9,0-5.4,1.1-7.2,3.6
			c-1.8,2.5-2.7,5.8-2.7,10.1c0,2,0.2,4,0.7,5.6c0.4,1.8,1.1,3.1,1.8,4.5c0.9,1.3,1.8,2.2,3.1,2.9s2.7,1.1,4.3,1.1
			c2,0,3.6-0.4,4.9-1.3c1.3-0.9,2.9-2.2,4.5-3.8l5.1,5.1c-0.9,1.1-1.6,2-2.7,2.9c-0.9,0.9-2,1.8-3.1,2.5c-1.1,0.7-2.5,1.3-4,1.8
			c-1.6,0.4-3.1,0.7-5.1,0.7c-2.5,0-4.9-0.4-7.2-1.6s-4-2.5-5.6-4.3c-1.6-1.8-2.9-4-3.8-6.7c-0.9-2.7-1.3-5.6-1.3-8.9
			c0-3.4,0.4-6.5,1.3-9.2c0.9-2.7,2.2-4.9,3.8-6.9c1.6-1.8,3.6-3.4,5.8-4.3c2.2-0.9,4.7-1.6,7.2-1.6c3.1,0,5.8,0.7,8.3,1.8
			c2.5,1.1,4.5,2.9,6.5,5.4L641.7,335.8z"/>
		<path class="st0" d="M679.5,365.3v-4c-1.3,1.3-3.1,2.7-5.1,3.6c-2,0.9-4,1.3-6.3,1.3c-1.8,0-3.4-0.2-5.1-0.7
			c-1.8-0.4-3.4-1.3-4.7-2.5s-2.5-2.5-3.4-4.3c-0.9-1.8-1.3-4-1.3-6.5c0-2.2,0.4-4.3,1.3-6c0.9-1.8,2-3.1,3.6-4.3
			c1.6-1.1,3.1-2,5.1-2.5s4.3-0.9,6.5-0.9c3.8,0,6.9,0.4,9.2,1.6v-3.1c0-2.2-0.7-4-2-5.1c-1.3-1.1-3.4-1.8-5.8-1.8
			c-2.2,0-4,0.2-5.8,0.7c-1.8,0.4-3.4,1.1-4.9,2l-3.1-6.3c2-1.1,4.3-2.2,6.5-2.7c2.2-0.7,4.9-0.9,7.8-0.9c4.7,0,8.5,1.1,11.2,3.4
			c2.9,2.2,4.3,5.8,4.3,10.5v28.4L679.5,365.3L679.5,365.3z M679.5,347.6c-1.1-0.7-2.5-1.1-4-1.3c-1.6-0.2-3.4-0.4-5.6-0.4
			c-2.7,0-4.7,0.4-6.3,1.6c-1.6,1.1-2.2,2.7-2.2,4.5c0,2,0.7,3.8,2,4.9c1.3,1.3,3.4,1.8,6,1.8c2.2,0,4.3-0.4,6-1.6
			c1.8-1.1,3.1-2.2,4-3.6L679.5,347.6L679.5,347.6z"/>
		<path class="st0" d="M718.9,364.2c-0.9,0.7-2.2,1.1-3.6,1.3c-1.3,0.4-2.9,0.4-4.5,0.4c-2.9,0-5.1-0.9-6.9-2.7
			c-1.6-1.8-2.5-4.5-2.5-8.3v-23.7h-6v-7.4h6v-11.9l8.1-4.3v16.1h10.3v7.4h-10.3v22.4c0,2,0.2,3.4,0.9,4s1.8,1.1,3.4,1.1
			c1.1,0,2.2-0.2,3.1-0.4c1.1-0.4,2-0.7,2.7-1.1L718.9,364.2z"/>
		<path class="st0" d="M739.3,317c-1.1,1.1-2.2,1.6-3.6,1.6c-1.6,0-2.7-0.4-3.8-1.6c-1.1-1.1-1.6-2.2-1.6-3.6c0-1.6,0.4-2.7,1.6-3.8
			c1.1-1.1,2.2-1.6,3.8-1.6c1.3,0,2.7,0.4,3.6,1.6c1.1,1.1,1.6,2.2,1.6,3.8C740.8,314.5,740.2,315.9,739.3,317z M731.4,365.3v-41.6
			h8.3v41.6H731.4z"/>
		<path class="st0" d="M785.6,353.7c-0.9,2.7-2.2,4.9-4,6.9c-1.8,1.8-3.6,3.4-6,4.3c-2.2,0.9-4.7,1.6-7.4,1.6
			c-2.7,0-5.1-0.4-7.4-1.6c-2.2-1.1-4.3-2.5-5.8-4.5s-2.9-4.3-3.8-6.7c-0.9-2.7-1.3-5.6-1.3-8.9s0.4-6.5,1.3-9.2
			c0.9-2.7,2.2-4.9,4-6.9c1.6-1.8,3.6-3.4,5.8-4.3c2.2-0.9,4.7-1.6,7.4-1.6c2.7,0,5.1,0.4,7.4,1.6s4.3,2.5,5.8,4.3s2.9,4,3.8,6.7
			c0.9,2.7,1.3,5.6,1.3,8.7C786.9,347.9,786.5,350.8,785.6,353.7z M776,334.4c-1.8-2.5-4.5-3.8-7.8-3.8c-3.1,0-5.6,1.3-7.4,3.8
			c-1.8,2.5-2.7,5.8-2.7,9.8c0,4.7,0.9,8.1,2.9,10.5s4.5,3.6,7.6,3.6c1.6,0,2.9-0.4,4.3-1.1c1.3-0.7,2.2-1.8,3.1-2.9
			c0.9-1.3,1.6-2.7,2-4.5c0.4-1.8,0.7-3.6,0.7-5.4C778.9,340.2,777.7,336.9,776,334.4z"/>
		<path class="st0" d="M822.3,365.3v-23.5c0-4.3-0.7-7.2-2.2-8.9c-1.6-1.8-3.6-2.5-6.3-2.5c-2.7,0-4.9,0.9-6.3,2.7
			c-1.6,1.8-2.2,4.5-2.2,7.8v24.2H797v-41.6h8.3v4c1.1-1.6,2.5-2.7,4.5-3.6c1.8-0.9,3.8-1.3,6-1.3c4.9,0,8.5,1.6,11,4.7
			c2.5,3.1,3.8,7.8,3.8,13.9v23.7h-8.3V365.3z"/>
		<path class="st0" d="M903.5,337.3c-2.2,2.7-5.1,4.5-8.9,5.4l11.4,22.6h-9.6l-11-21.9h-12.5v21.9h-8.3V310h24.4
			c2.5,0,4.7,0.2,6.9,0.9c2.2,0.7,4,1.6,5.6,2.9c1.6,1.3,2.9,3.1,3.8,5.1c0.9,2,1.3,4.5,1.3,7.4
			C906.8,331.1,905.7,334.7,903.5,337.3z M895.9,320.1c-1.8-1.6-4-2.2-6.7-2.2H873v17.9h16.1c2.7,0,5.1-0.7,6.7-2.2
			c1.8-1.3,2.7-3.6,2.7-6.7C898.3,323.9,897.4,321.7,895.9,320.1z"/>
		<path class="st0" d="M942.4,365.3v-4c-1.1,1.6-2.5,2.7-4.5,3.6c-1.8,0.9-3.8,1.3-6,1.3c-4.9,0-8.5-1.6-11-4.7
			c-2.5-3.1-3.8-7.8-3.8-13.9v-23.7h8.3v23.5c0,4.3,0.7,7.2,2.2,8.9c1.6,1.8,3.6,2.5,6.3,2.5s4.9-0.9,6.3-2.7s2.2-4.5,2.2-7.8v-24.2
			h8.3v41.6h-8.3V365.3z"/>
		<path class="st0" d="M987.8,365.3v-23.5c0-4.3-0.7-7.2-2.2-8.9c-1.6-1.8-3.6-2.5-6.3-2.5s-4.9,0.9-6.3,2.7
			c-1.6,1.8-2.2,4.5-2.2,7.8v24.2h-8.3v-41.6h8.3v4c1.1-1.6,2.5-2.7,4.5-3.6c1.8-0.9,3.8-1.3,6-1.3c4.9,0,8.5,1.6,11,4.7
			s3.8,7.8,3.8,13.9v23.7h-8.3V365.3z"/>
		<path class="st0" d="M1027.2,364.2c-0.9,0.7-2.2,1.1-3.6,1.3c-1.3,0.4-2.9,0.4-4.5,0.4c-2.9,0-5.1-0.9-6.9-2.7
			c-1.6-1.8-2.5-4.5-2.5-8.3v-23.7h-6v-7.4h6v-11.9l8.1-4.3v16.1h10.3v7.4h-10.3v22.4c0,2,0.2,3.4,0.9,4s1.8,1.1,3.4,1.1
			c1.1,0,2.2-0.2,3.1-0.4c1.1-0.4,2-0.7,2.7-1.1L1027.2,364.2z"/>
		<path class="st0" d="M1047.3,317c-1.1,1.1-2.2,1.6-3.6,1.6c-1.6,0-2.7-0.4-3.8-1.6c-1.1-1.1-1.6-2.2-1.6-3.6
			c0-1.6,0.4-2.7,1.6-3.8c1.1-1.1,2.2-1.6,3.8-1.6c1.3,0,2.7,0.4,3.6,1.6c1.1,1.1,1.6,2.2,1.6,3.8
			C1048.9,314.5,1048.4,315.9,1047.3,317z M1039.5,365.3v-41.6h8.3v41.6H1039.5z"/>
		<path class="st0" d="M1108.6,365.3v-23.5c0-4.3-0.7-7.2-2-8.9c-1.3-1.8-3.4-2.5-6-2.5s-4.7,0.9-6,2.7c-1.3,1.8-2,4.5-2,7.8v24.2
			h-8.3v-23.5c0-4.3-0.7-7.2-2-8.9c-1.3-1.8-3.4-2.5-6-2.5s-4.7,0.9-6,2.7c-1.3,1.8-2,4.5-2,7.8v24.2h-8.1v-41.6h8.3v4
			c1.1-1.6,2.5-2.7,4-3.6c1.8-0.9,3.6-1.3,5.8-1.3c2.9,0,5.1,0.4,6.9,1.6c1.8,1.1,3.4,2.5,4.5,4.7c0.7-0.9,1.6-1.8,2.2-2.5
			c0.9-0.7,1.8-1.3,2.7-2c1.1-0.4,2.2-0.9,3.4-1.3c1.3-0.2,2.7-0.4,4.3-0.4c4.9,0,8.5,1.6,10.7,4.7c2.2,3.1,3.6,7.8,3.6,13.9v23.7
			h-7.8V365.3z"/>
		<path class="st0" d="M1161.9,345.8c0,0.7,0,1.1-0.2,1.6h-27.5c0.2,2,0.7,3.8,1.3,5.1c0.7,1.3,1.3,2.7,2.5,3.6c0.9,0.9,2,1.6,3.1,2
			c1.1,0.4,2.5,0.7,3.6,0.7c1.8,0,3.4-0.2,4.7-0.9s2.9-1.3,4.3-2.5l4.9,5.1c-1.8,1.8-3.8,3.1-6.3,4c-2.2,0.9-4.9,1.3-8.1,1.3
			c-2.5,0-4.7-0.4-6.9-1.3c-2.2-0.9-4-2.2-5.8-4.3c-1.6-1.8-2.9-4-3.8-6.7c-0.9-2.7-1.3-5.8-1.3-9.2c0-3.6,0.4-6.7,1.3-9.4
			c0.9-2.7,2.2-4.9,3.8-6.7c1.6-1.8,3.6-3.1,5.8-4.3c2.2-0.9,4.7-1.3,7.4-1.3c2.9,0,5.6,0.4,7.6,1.6c2.2,1.1,4,2.7,5.4,4.5
			c1.3,1.8,2.5,4,3.4,6.7c0.7,2.5,1.1,5.1,1.1,8.1C1161.9,344.5,1161.9,345.2,1161.9,345.8z M1152.9,336.7c-0.4-1.3-0.9-2.5-1.8-3.4
			c-0.9-0.9-1.8-1.8-2.9-2.2c-1.1-0.4-2.7-0.9-4.3-0.9c-2.7,0-4.9,0.9-6.5,2.7c-1.6,1.8-2.7,4.5-2.9,7.6h19.2
			C1153.6,339.4,1153.4,338,1152.9,336.7z"/>
		<path class="st0" d="M1199,359.7c-0.9,1.6-2,2.9-3.4,3.8c-1.3,0.9-3.1,1.6-4.9,2c-1.8,0.4-3.8,0.7-5.8,0.7c-2.9,0-5.6-0.4-8.5-1.6
			c-2.9-0.9-5.4-2.2-7.4-3.8l3.8-6.3c2,1.3,4,2.5,6,3.1s4,1.1,6,1.1c5.1,0,7.6-1.6,7.6-4.7c0-1.6-0.9-2.9-2.5-3.8
			c-1.8-0.9-4-2-7.2-3.1c-2.2-0.9-4-1.8-5.6-2.5s-2.9-1.8-3.8-2.9c-0.9-0.9-1.6-2-2-3.4c-0.4-1.3-0.7-2.7-0.7-4.3
			c0-1.8,0.4-3.6,1.1-4.9c0.7-1.3,1.6-2.7,2.9-3.6c1.3-0.9,2.7-1.6,4.5-2.2c1.8-0.4,3.6-0.7,5.6-0.7c2.7,0,5.1,0.4,7.6,1.3
			c2.5,0.9,4.7,2,6.5,3.4l-3.6,6.3c-1.8-1.1-3.4-2-5.1-2.7c-1.8-0.7-3.6-0.9-5.6-0.9s-3.4,0.4-4.3,1.1c-0.9,0.7-1.3,1.6-1.3,2.7
			c0,0.4,0,1.1,0.2,1.6s0.7,0.9,1.1,1.3c0.7,0.4,1.3,0.9,2.2,1.6c0.9,0.4,2.2,1.1,3.8,1.8c2.2,0.9,4.3,1.8,6,2.5
			c1.8,0.9,3.1,1.8,4.5,2.7c1.1,1.1,2,2.2,2.7,3.6c0.7,1.3,0.9,3.1,0.9,4.9C1200.4,356.4,1199.9,358.1,1199,359.7z"/>
	</g>
	<g>
		<path class="st1" d="M108.8,207.4l-57.3,20.8c0.7,9.2,2.2,18.3,4.5,27.1l54.4-19.9C108.8,226.4,108.1,217,108.8,207.4"/>
		<path class="st1" d="M362.3,144c-4-8.3-8.7-16.3-14.1-23.7l-57.3,20.8c6.7,6.7,12.3,14.5,16.8,22.6L362.3,144z"/>
		<path class="st2" d="M236.1,127.7c11.9,5.6,22.1,13.2,30.9,22.1l57.3-20.8c-15.9-22.4-37.6-40.9-64-53.2
			c-81.9-38.3-179.6-2.7-217.9,79.4c-12.3,26.4-17,54.6-14.8,81.9l57.3-20.8c0.9-12.5,4-24.8,9.6-36.7
			C119.3,126.1,182.9,102.9,236.1,127.7"/>
		<path class="st2" d="M59.6,254.1L5,274c4.9,19.9,13.6,38.7,25.5,55.5l57.3-20.8C73.5,293.7,63.6,274.5,59.6,254.1"/>
		<path class="st2" d="M297.4,232.4c-0.9,12.3-4,24.8-9.6,36.9c-24.8,53.2-88.4,76.3-141.6,51.5c-11.9-5.6-22.4-13.2-31.1-21.9
			l-57.3,20.8c15.9,22.4,37.4,40.9,64,53.2c81.9,38.3,179.6,2.7,217.9-79.4c12.3-26.4,17-54.6,14.8-81.9L297.4,232.4z"/>
		<path class="st2" d="M311.5,162.6l-54.4,19.9c10.1,18.1,15,38.9,13.4,60l57.3-20.8C325.8,201.1,320.5,181,311.5,162.6"/>
		<path class="st3" d="M108.6,219c-0.2-3.8,0-7.6,0.2-11.6l-57.3,20.8c0.2,3.6,0.7,7.4,1.3,11L108.6,219z"/>
		<path class="st3" d="M354,128.8c-1.8-2.9-3.6-5.8-5.6-8.7l-57.3,20.8c2.5,2.5,4.9,5.4,7.2,8.1L354,128.8z"/>
		<path class="st1" d="M57.8,319.7c4.5,6.3,9.4,12.1,14.5,17.7l62.2-22.8c-7.4-4.5-13.9-9.8-19.7-15.9L57.8,319.7z M354.5,211.6
			l-57.3,20.8c-0.7,8.3-2.2,16.6-4.9,24.6l62.2-22.8C355.1,226.8,355.1,219.2,354.5,211.6"/>
	</g>
</g>
</svg>
