<svg width="220" height="39" xmlns="http://www.w3.org/2000/svg">

 <g>
  <title>background</title>
  <rect fill="none" id="canvas_background" height="402" width="582" y="-1" x="-1"/>
 </g>
 <g>
  <title>Layer 1</title>
  <path fill="#ffffff" id="svg_2" d="m61.933,13.025c-2.86,0 -4.756,2.304 -4.756,6.443c0,4.138 1.985,6.5 4.847,6.5c2.86,0 4.753,-2.303 4.753,-6.445c-0.001,-4.136 -1.986,-6.498 -4.844,-6.498m0.028,16.993c-5.34,0 -8.988,-3.904 -8.988,-10.494c0,-6.582 3.706,-10.55 9.051,-10.55c5.307,0 8.958,3.904 8.958,10.492c0,6.589 -3.71,10.552 -9.021,10.552"/>
  <path fill="#ffffff" id="svg_3" d="m83.67,13.258l-4.698,0l0,5.249l4.757,0c1.895,0 2.918,-0.875 2.918,-2.657c0,-1.777 -1.168,-2.592 -2.977,-2.592m-0.203,9.212l-4.496,0l0,7.228l-4.085,0l0,-20.403l8.929,0c3.851,0 7.033,2.129 7.033,6.471c-0.001,4.723 -3.151,6.704 -7.381,6.704"/>
  <polygon fill="#ffffff" id="svg_4" points="95.077,29.696 95.077,9.295 109.256,9.295 109.256,13.289 99.159,13.289 99.159,16.815 105.023,16.815    105.023,20.777 99.159,20.777 99.159,25.701 109.694,25.701 109.694,29.696  "/>
  <path fill="#ffffff" id="svg_5" d="m127.284,29.696l-7.501,-11.131c-0.498,-0.757 -1.166,-1.778 -1.428,-2.301c0,0.757 0.056,3.321 0.056,4.461l0,8.972l-4.023,0l0,-20.402l3.904,0l7.239,10.787c0.498,0.755 1.169,1.782 1.43,2.301c0,-0.762 -0.057,-3.323 -0.057,-4.459l0,-8.63l4.023,0l0,20.401l-3.643,0.001l0,0z"/>
  <path fill="#ffffff" id="svg_6" d="m142.808,30.018c-2.769,0 -5.25,-1.198 -6.854,-2.826l1.515,-1.69c1.548,1.485 3.328,2.449 5.428,2.449c2.717,0 4.41,-1.339 4.41,-3.497c0,-1.897 -1.139,-2.972 -4.875,-4.312c-4.405,-1.576 -5.898,-3.003 -5.898,-5.949c0,-3.268 2.568,-5.217 6.394,-5.217c2.745,0 4.496,0.814 6.217,2.188l-1.458,1.777c-1.487,-1.227 -2.861,-1.899 -4.905,-1.899c-2.8,0 -3.97,1.4 -3.97,3.002c0,1.694 0.762,2.654 4.844,4.112c4.525,1.633 5.926,3.149 5.926,6.179c0.002,3.208 -2.51,5.683 -6.774,5.683"/>
  <polygon fill="#ffffff" id="svg_7" points="167.085,29.696 167.085,20.082 156.93,20.082 156.93,29.696 154.654,29.696 154.654,9.295 156.93,9.295    156.93,18.009 167.085,18.009 167.085,9.295 169.36,9.295 169.36,29.696  "/>
  <rect fill="#ffffff" id="svg_8" height="20.401" width="2.277" y="9.296" x="175.215"/>
  <polygon fill="#ffffff" id="svg_9" points="185.631,11.364 185.631,18.127 191.23,18.127 191.23,20.199 185.631,20.199 185.631,29.696 183.354,29.696    183.354,9.295 195.35,9.295 195.35,11.364  "/>
  <polygon fill="#ffffff" id="svg_10" points="207.722,11.364 207.722,29.696 205.444,29.696 205.444,11.364 199.435,11.364 199.435,9.295 213.731,9.295    213.731,11.364  "/>
  <path id="svg_11" d="m12.35,17.49l-6.83,2.481c0.088,1.093 0.275,2.173 0.54,3.233l6.484,-2.365c-0.209,-1.09 -0.283,-2.218 -0.194,-3.349" fill="#BC1C29"/>
  <path id="svg_12" d="m42.517,9.952c-0.476,-0.979 -1.024,-1.929 -1.665,-2.824l-6.827,2.481c0.795,0.813 1.463,1.723 2.007,2.699l6.485,-2.356z" fill="#BC1C29"/>
  <path id="svg_13" d="m27.498,8.022c1.418,0.662 2.652,1.562 3.687,2.621l6.828,-2.483c-1.895,-2.649 -4.468,-4.862 -7.62,-6.333c-9.758,-4.546 -21.404,-0.314 -25.947,9.431c-1.477,3.15 -2.024,6.503 -1.769,9.746l6.829,-2.484c0.11,-1.475 0.475,-2.955 1.138,-4.375c2.953,-6.329 10.518,-9.078 16.854,-6.123" fill="#E22434"/>
  <path id="svg_14" d="m6.486,23.05l-6.486,2.358c0.597,2.359 1.631,4.605 3.051,6.598l6.814,-2.473c-1.75,-1.795 -2.916,-4.06 -3.379,-6.483" fill="#E22434"/>
  <path id="svg_15" d="m34.778,20.478c-0.109,1.475 -0.478,2.958 -1.144,4.378c-2.956,6.336 -10.518,9.084 -16.86,6.131c-1.419,-0.667 -2.66,-1.563 -3.695,-2.624l-6.81,2.479c1.887,2.647 4.46,4.861 7.614,6.333c9.757,4.544 21.399,0.313 25.952,-9.434c1.472,-3.149 2.015,-6.499 1.757,-9.741l-6.814,2.478z" fill="#E22434"/>
  <path id="svg_16" d="m36.458,12.152l-6.486,2.364c1.206,2.152 1.772,4.638 1.589,7.134l6.812,-2.479c-0.197,-2.442 -0.849,-4.824 -1.915,-7.019" fill="#E22434"/>
  <path id="svg_17" d="m12.321,18.86c-0.016,-0.455 -0.01,-0.913 0.028,-1.371l-6.83,2.481c0.033,0.435 0.088,0.868 0.154,1.3l6.648,-2.41z" fill="#97101B"/>
  <path id="svg_18" d="m41.532,8.156c-0.217,-0.346 -0.44,-0.694 -0.678,-1.029l-6.825,2.481c0.3,0.307 0.578,0.634 0.842,0.965l6.661,-2.417z" fill="#97101B"/>
  <path id="svg_19" d="m6.271,30.841c0.523,0.734 1.105,1.443 1.736,2.104l7.414,-2.696c-0.868,-0.548 -1.65,-1.176 -2.342,-1.882l-6.808,2.474zm35.322,-12.84l-6.815,2.476c-0.072,0.983 -0.263,1.964 -0.576,2.927l7.41,-2.697c0.058,-0.909 0.047,-1.811 -0.019,-2.706" fill="#BC1C29"/>
  <path fill="#ffffff" id="svg_20" d="m219.25,10.993c-0.071,0.172 -0.168,0.319 -0.293,0.443c-0.129,0.122 -0.274,0.217 -0.445,0.284c-0.171,0.067 -0.355,0.1 -0.56,0.1c-0.197,0 -0.38,-0.034 -0.553,-0.1c-0.17,-0.068 -0.318,-0.163 -0.449,-0.284c-0.12,-0.123 -0.223,-0.271 -0.289,-0.443c-0.075,-0.171 -0.112,-0.362 -0.112,-0.573c0,-0.209 0.037,-0.4 0.112,-0.57c0.066,-0.172 0.169,-0.32 0.289,-0.444c0.127,-0.125 0.276,-0.216 0.449,-0.285c0.169,-0.067 0.356,-0.1 0.553,-0.1c0.204,0 0.39,0.033 0.56,0.1c0.169,0.069 0.313,0.163 0.445,0.285c0.125,0.124 0.222,0.271 0.293,0.444c0.071,0.17 0.106,0.361 0.106,0.57c0,0.211 -0.034,0.401 -0.106,0.573m-0.176,-1.067c-0.062,-0.151 -0.147,-0.279 -0.258,-0.384c-0.105,-0.109 -0.234,-0.193 -0.384,-0.252c-0.145,-0.059 -0.308,-0.091 -0.48,-0.091c-0.166,0 -0.323,0.033 -0.475,0.091c-0.145,0.06 -0.272,0.144 -0.381,0.252c-0.109,0.105 -0.197,0.234 -0.258,0.384c-0.062,0.151 -0.096,0.312 -0.096,0.495c0,0.18 0.033,0.348 0.096,0.498c0.06,0.148 0.148,0.278 0.258,0.387c0.108,0.106 0.236,0.188 0.381,0.246c0.152,0.062 0.307,0.092 0.475,0.092c0.171,0 0.336,-0.029 0.48,-0.092c0.148,-0.058 0.278,-0.142 0.384,-0.246c0.11,-0.109 0.195,-0.237 0.258,-0.387c0.063,-0.15 0.093,-0.317 0.093,-0.498c0.002,-0.183 -0.029,-0.349 -0.093,-0.495m-0.595,0.429c-0.062,0.073 -0.147,0.125 -0.258,0.151l0.347,0.662l-0.24,0l-0.333,-0.647l-0.336,0l0,0.647l-0.204,0l0,-1.546l0.629,0c0.144,0 0.258,0.038 0.352,0.107c0.099,0.075 0.146,0.186 0.146,0.337c-0.005,0.116 -0.038,0.213 -0.103,0.289m-0.185,-0.484c-0.052,-0.043 -0.127,-0.067 -0.227,-0.067l-0.413,0l0,0.524l0.388,0c0.221,0 0.329,-0.089 0.329,-0.263c0.003,-0.085 -0.027,-0.154 -0.077,-0.194"/>
 </g>
</svg>